<?xml version="1.0" encoding="utf-8"?>
<!-- Generator: Adobe Illustrator 16.0.0, SVG Export Plug-In . SVG Version: 6.00 Build 0)  -->
<!DOCTYPE svg PUBLIC "-//W3C//DTD SVG 1.1//EN" "http://www.w3.org/Graphics/SVG/1.1/DTD/svg11.dtd">
<svg version="1.1" id="Layer_1" xmlns="http://www.w3.org/2000/svg" xmlns:xlink="http://www.w3.org/1999/xlink" x="0px" y="0px"
	 width="119.416px" height="102.604px" viewBox="0 0 119.416 102.604" enable-background="new 0 0 119.416 102.604"
	 xml:space="preserve">
<path fill="#5F7B9E" d="M39.556,82.594c5.203,7.06,5.222,7.076-0.947,12.986c-1.879,1.801-3.886,3.474-5.834,5.205
	c-0.511-0.488-1.022-0.976-1.533-1.462c3.21-3.333,6.42-6.667,9.558-9.926c-9.411-8.896-18.577-17.562-28.096-26.559
	c-2.877,2.628-6.313,5.768-9.75,8.906c-0.416-0.35-0.832-0.697-1.247-1.046c0.49-0.875,0.836-1.874,1.5-2.6
	c1.489-1.625,3.128-3.124,4.724-4.657c5.055-4.859,5.058-4.855,11.61-0.394c0.885-1.251,1.699-2.885,2.95-4.099
	c10.501-10.182,22.375-11.701,35.813-5.54c3.407,1.563,7.87,0.867,11.794,1.513c3.305,0.542,6.502,1.688,9.807,2.233
	c1.349,0.223,3.148-0.023,4.236-0.76c5.399-3.658,10.526-7.699,15.955-11.32c5.588-3.729,10.67-3.671,15.487-0.346
	c2.948,2.034,3.41,4.358,0.702,6.838c-10.563,9.67-21.104,19.367-31.857,28.835c-1.455,1.28-4.078,1.803-6.176,1.836
	c-11.247,0.179-22.498,0.081-33.748,0.104C43.068,82.349,41.632,82.487,39.556,82.594 M80.665,66.219
	c-0.947-6.71-2.962-8.729-8.545-8.68c-6.911,0.062-13.332-0.67-19.971-3.409c-11.477-4.735-24.438,0.425-31.618,11.946
	c4.498,4.027,9.147,8.329,13.991,12.414c0.987,0.832,2.702,1.188,4.086,1.197c13.203,0.082,26.407,0.113,39.608-0.05
	c1.756-0.021,3.9-0.786,5.182-1.929c10.263-9.142,20.362-18.451,30.494-27.729c0.502-0.461,0.818-1.11,1.195-1.636
	c-4.211-3.981-8.564-4.408-13.445-1.076c-5.635,3.849-11.15,7.867-16.537,12.034c-1.006,0.777-1.713,2.653-1.582,3.932
	c0.399,3.952-1.576,5.292-5.215,5.297c-7.203,0.008-14.404,0.039-21.604-0.025c-1.155-0.011-2.307-0.472-3.459-0.725
	c0.042-0.521,0.085-1.041,0.128-1.563h27.293V66.219z"/>
<path fill="none" stroke="#5F7B9E" stroke-width="2.673" stroke-miterlimit="10" d="M39.556,82.594
	c5.203,7.06,5.222,7.076-0.947,12.986c-1.879,1.801-3.886,3.474-5.834,5.205c-0.511-0.488-1.022-0.976-1.533-1.462
	c3.21-3.333,6.42-6.667,9.558-9.926c-9.411-8.896-18.577-17.562-28.096-26.559c-2.877,2.628-6.313,5.768-9.75,8.906
	c-0.416-0.35-0.832-0.697-1.247-1.046c0.49-0.875,0.836-1.874,1.5-2.6c1.489-1.625,3.128-3.124,4.724-4.657
	c5.055-4.859,5.058-4.855,11.61-0.394c0.885-1.251,1.699-2.885,2.95-4.099c10.501-10.182,22.375-11.701,35.813-5.54
	c3.407,1.563,7.87,0.867,11.794,1.513c3.305,0.542,6.502,1.688,9.807,2.233c1.349,0.223,3.148-0.023,4.236-0.76
	c5.399-3.658,10.526-7.699,15.955-11.32c5.588-3.729,10.67-3.671,15.487-0.346c2.948,2.034,3.41,4.358,0.702,6.838
	c-10.563,9.67-21.104,19.367-31.857,28.835c-1.455,1.28-4.078,1.803-6.176,1.836c-11.247,0.179-22.498,0.081-33.748,0.104
	C43.068,82.349,41.632,82.487,39.556,82.594z M80.665,66.219c-0.947-6.71-2.962-8.729-8.545-8.68
	c-6.911,0.062-13.332-0.67-19.971-3.409c-11.477-4.735-24.438,0.425-31.618,11.946c4.498,4.027,9.147,8.329,13.991,12.414
	c0.987,0.832,2.702,1.188,4.086,1.197c13.203,0.082,26.407,0.113,39.608-0.05c1.756-0.021,3.9-0.786,5.182-1.929
	c10.263-9.142,20.362-18.451,30.494-27.729c0.502-0.461,0.818-1.11,1.195-1.636c-4.211-3.981-8.564-4.408-13.445-1.076
	c-5.635,3.849-11.15,7.867-16.537,12.034c-1.006,0.777-1.713,2.653-1.582,3.932c0.399,3.952-1.576,5.292-5.215,5.297
	c-7.203,0.008-14.404,0.039-21.604-0.025c-1.155-0.011-2.307-0.472-3.459-0.725c0.042-0.521,0.085-1.041,0.128-1.563h27.293V66.219z
	"/>
<path fill="#5F7B9E" d="M92.845,23.264c-0.08,12.144-10.101,21.677-22.725,21.621c-12.419-0.054-22.475-10.02-22.295-22.095
	C48.001,10.936,58.094,1.339,70.388,1.336C82.871,1.333,92.923,11.15,92.845,23.264 M70.455,42.199
	c10.937-0.088,19.679-8.634,19.623-19.187C90.024,12.557,81.039,3.922,70.237,3.946c-10.647,0.023-19.763,8.96-19.67,19.279
	C50.664,33.751,59.609,42.285,70.455,42.199"/>
<path fill="none" stroke="#5F7B9E" stroke-width="2.673" stroke-miterlimit="10" d="M92.845,23.264
	c-0.08,12.144-10.101,21.677-22.725,21.621c-12.419-0.054-22.475-10.02-22.295-22.095C48.001,10.936,58.094,1.339,70.388,1.336
	C82.871,1.333,92.923,11.15,92.845,23.264z M70.455,42.199c10.937-0.088,19.679-8.634,19.623-19.187
	C90.024,12.557,81.039,3.922,70.237,3.946c-10.647,0.023-19.763,8.96-19.67,19.279C50.664,33.751,59.609,42.285,70.455,42.199z"/>
<path fill="#5F7B9E" d="M14.979,71.802c1.125,1.759,2.203,2.722,2.213,3.691c0.007,0.733-1.526,2.19-2.067,2.067
	c-1-0.228-2.375-1.309-2.479-2.16C12.538,74.541,13.787,73.524,14.979,71.802"/>
<path fill="none" stroke="#5F7B9E" stroke-width="2.673" stroke-miterlimit="10" d="M14.979,71.802
	c1.125,1.759,2.203,2.722,2.213,3.691c0.007,0.733-1.526,2.19-2.067,2.067c-1-0.228-2.375-1.309-2.479-2.16
	C12.538,74.541,13.787,73.524,14.979,71.802z"/>
<path fill="none" stroke="#5F7B9E" stroke-width="2.673" stroke-miterlimit="10" d="M80.665,66.219H53.371
	c-0.043,0.521-0.086,1.043-0.128,1.563c1.152,0.253,2.304,0.714,3.459,0.725c7.201,0.065,14.402,0.033,21.605,0.025
	c3.639-0.005,5.613-1.345,5.215-5.297c-0.131-1.277,0.576-3.153,1.582-3.932c5.386-4.167,10.901-8.187,16.537-12.034
	c4.881-3.332,9.233-2.904,13.444,1.076c-0.377,0.524-0.692,1.175-1.194,1.636C103.76,59.26,93.659,68.571,83.397,77.711
	c-1.28,1.143-3.426,1.906-5.183,1.929c-13.2,0.163-26.405,0.132-39.608,0.05c-1.384-0.009-3.099-0.365-4.086-1.197
	c-4.844-4.085-9.493-8.387-13.991-12.414c7.18-11.521,20.142-16.683,31.618-11.946c6.639,2.739,13.06,3.471,19.971,3.409
	C77.703,57.49,79.718,59.51,80.665,66.219z"/>
<g id="layer1">
	<g>
		<path fill="#5F7B9E" d="M86.207,7.175c-4.419-4.298-9.722-6.485-15.908-6.563C64.11,0.709,58.815,2.904,54.413,7.202
			c-4.298,4.386-6.495,9.692-6.59,15.922c0.106,6.233,2.306,11.537,6.598,15.907c4.415,4.304,9.714,6.496,15.9,6.58
			c6.188-0.088,11.486-2.279,15.893-6.57c4.305-4.38,6.506-9.686,6.607-15.915v-0.051C92.709,16.84,90.503,11.541,86.207,7.175z
			 M88.323,23.119c-0.081,4.964-1.844,9.212-5.29,12.742c-3.5,3.408-7.731,5.157-12.694,5.253c-4.873-0.047-9.107-1.79-12.704-5.229
			c-3.446-3.516-5.219-7.757-5.315-12.726c0.068-4.966,1.819-9.219,5.255-12.761c3.557-3.456,7.81-5.22,12.755-5.289
			c4.873,0.054,9.104,1.802,12.698,5.246c3.441,3.521,5.207,7.767,5.296,12.734L88.323,23.119z"/>
	</g>
	<g>
		<g>
			<path fill="#5F7B9E" d="M67.17,7.16v2.854c-1.589,0.653-2.882,1.688-3.876,3.109c-0.994,1.42-1.49,3.039-1.49,4.855
				c0,1.164,0.229,2.271,0.682,3.321c0.455,1.022,1.064,1.917,1.832,2.685c0.769,0.768,1.676,1.376,2.728,1.832
				c1.021,0.455,2.116,0.682,3.279,0.682h0.255c0.342,0.058,0.625,0.213,0.854,0.469c0.228,0.256,0.34,0.568,0.34,0.938
				c0,0.396-0.143,0.737-0.426,1.021c-0.285,0.284-0.625,0.427-1.021,0.427c-0.397,0-0.737-0.143-1.022-0.427
				c-0.282-0.283-0.426-0.625-0.426-1.021h-7.069c0,0.908,0.143,1.773,0.426,2.598c0.256,0.795,0.625,1.547,1.106,2.257
				c0.454,0.683,1.009,1.292,1.661,1.832c0.652,0.512,1.377,0.924,2.172,1.235v3.236h7.156v-3.621
				c1.363-0.737,2.456-1.773,3.279-3.108c0.822-1.307,1.233-2.783,1.233-4.429c0-1.165-0.228-2.272-0.681-3.323
				c-0.455-1.021-1.064-1.917-1.831-2.684c-0.769-0.768-1.677-1.377-2.728-1.832c-1.021-0.455-2.115-0.683-3.279-0.683h-0.256
				c-0.342-0.057-0.623-0.227-0.854-0.511c-0.229-0.256-0.341-0.555-0.341-0.896c0-0.396,0.144-0.753,0.426-1.064
				c0.285-0.284,0.625-0.427,1.021-0.427c0.397,0,0.738,0.156,1.022,0.47c0.284,0.284,0.427,0.625,0.427,1.021h7.069
				c0-1.646-0.411-3.139-1.233-4.474c-0.824-1.334-1.916-2.371-3.279-3.108V7.16H67.17z"/>
		</g>
	</g>
</g>
</svg>
