<?xml version="1.0" encoding="utf-8"?>
<!-- Generator: Adobe Illustrator 16.0.0, SVG Export Plug-In . SVG Version: 6.00 Build 0)  -->
<!DOCTYPE svg PUBLIC "-//W3C//DTD SVG 1.1//EN" "http://www.w3.org/Graphics/SVG/1.1/DTD/svg11.dtd">
<svg version="1.1" id="Layer_1" xmlns="http://www.w3.org/2000/svg" xmlns:xlink="http://www.w3.org/1999/xlink" x="0px" y="0px"
	 width="325.42px" height="352.818px" viewBox="0 0 325.42 352.818" enable-background="new 0 0 325.42 352.818"
	 xml:space="preserve">
<g>
	<path fill="#5F7B9E" d="M162.476,352.818c-26.895,0-51.899-8.616-74.319-25.61c-0.981-0.743-1.932-0.98-3.911-0.98
		c-11.697,0.011-23.376,0.015-35.056,0.015c-11.678,0-36.407-0.005-36.407-0.005c-1.301,0-2.705-0.033-4.155-0.274
		c-4.386-0.729-6.409-3.008-7.334-4.789c-0.931-1.792-1.632-4.778,0.316-8.843c1.267-2.64,2.573-5.261,3.879-7.882
		c2.494-5.005,5.073-10.18,7.275-15.333c6.263-14.667,10.486-29.37,12.559-43.726c-0.232-0.04-0.463-0.08-0.694-0.12
		C10.3,242.794,0.197,230.929,0.06,216.415c-0.08-8.497-0.081-17.272-0.003-26.088c0.14-15.627,11.369-27.865,26.807-29.36
		c0.014-3.4,0.007-6.804,0-10.203c-0.011-5.229-0.023-10.636,0.046-15.97c0.347-27.063,7.946-51.838,22.586-73.636
		C70.693,29.596,100.052,9.944,136.758,2.75C146.065,0.925,155.352,0,164.358,0c28.305,0,55.07,9.031,79.556,26.841
		c21.956,15.974,37.881,37.566,47.332,64.186c5.144,14.482,7.729,29.93,7.914,47.221c0.049,4.666,0.036,9.396,0.026,13.968
		c-0.008,2.843-0.016,5.685-0.008,8.524c0,0.073,0,0.149,0.002,0.226c0.021,0.003,0.193,0.023,0.193,0.023
		c10.845,1.251,18.984,7.043,23.538,16.75c1.401,2.984,2.219,6.659,2.303,10.347c0.095,4.252,0.061,8.539,0.022,12.686
		c-0.046,5.384-0.095,10.947,0.153,16.343c0.618,13.406-10.319,24.698-20.812,27.473c-0.837,0.224-1.544,0.389-2.225,0.521
		c-0.563,0.109-1.155,0.229-1.688,0.34c0.087,0.576,0.192,1.221,0.294,1.83c3.461,20.954,10.598,41.399,21.817,62.512l0.264,0.49
		c0.621,1.151,1.324,2.456,1.779,4.029c1.048,3.642,0.111,6.198-0.855,7.707c-0.968,1.507-2.909,3.421-6.654,3.979
		c-1.419,0.212-2.779,0.24-4.041,0.24l-1.407-0.004l-14.944,0.012c-6.701,0.007-13.401,0.013-20.104,0.013
		c-13.146,0-23.781-0.024-33.476-0.083h-0.11c-2.932,0-5.051,0.695-7.313,2.4c-17.748,13.387-37.953,21.313-60.053,23.559
		C171.371,352.585,166.865,352.818,162.476,352.818z M95.428,113.35c-7.013,10.341-15.695,18.47-25.493,27.271
		c-8.503,7.641-12.164,15.435-11.87,25.273c0.394,13.135,0.316,26.46,0.242,39.346c-0.041,7.025-0.083,14.289-0.048,21.418
		c0.027,5.744,0.055,11.682,0.847,17.392c3.732,26.938,15.968,49.231,36.367,66.268c19.727,16.474,41.905,24.826,65.92,24.826h0.001
		c6.988,0,14.234-0.713,21.539-2.12c31.408-6.047,55.553-23.603,71.765-52.172c1.218-2.146,2.349-4.332,3.396-6.567
		c-0.437,0.414-0.879,0.826-1.324,1.234c-13.596,12.421-29.162,19.946-46.271,22.374c-7.643,1.084-15.391,1.259-22.883,1.429
		l-2.781,0.063c-1.801,0.047-1.801,0.047-2.327,1.134c-3.667,7.563-10.911,12.078-19.381,12.078c-1.799,0-3.621-0.215-5.415-0.634
		c-11.682-2.729-19.006-14.646-16.327-26.563c2.234-9.939,11.254-17.153,21.446-17.153c1.675,0,3.354,0.198,4.984,0.588
		c7.217,1.728,12.549,6.084,15.429,12.606c0.425-0.004,0.851-0.006,1.276-0.006c1.724,0,3.449,0.026,5.178,0.058
		c1.671,0.027,3.341,0.056,5.008,0.056c3.357,0,5.913-0.115,8.287-0.379c17.971-1.981,33.203-9.472,45.275-22.257
		c11.65-12.342,18.121-26.967,19.229-43.47c0.607-9.073,0.486-18.45,0.372-27.521c-0.042-3.223-0.084-6.541-0.097-9.837
		c-1.553-0.145-3.104-0.279-4.66-0.417c-4.172-0.365-8.483-0.743-12.754-1.288c-21.914-2.798-41.447-6.634-59.719-11.727
		c-26.351-7.346-47.277-15.91-65.854-26.951c-12.835-7.628-22.219-15.614-29.056-24.793
		C95.627,113.056,95.527,113.203,95.428,113.35z M23.785,308.117c4.296,0.105,10.481,0.179,18.503,0.179c0.001,0,0.002,0,0.003,0
		c10.403,0,19.572-0.119,25.966-0.286c-0.323-0.379-0.645-0.765-0.962-1.158c-12.75-15.892-21.146-34.282-25.013-54.764
		C38.992,270.851,32.785,289.658,23.785,308.117z M301.949,307.974c-9.119-19.025-15.134-37.58-18.288-56.43
		c-3.778,21.147-12.512,40.079-26.023,56.43H301.949z M163.081,286.07c-2.403,0-4.594,2.001-4.597,4.198
		c-0.001,1.177,0.481,2.311,1.359,3.188c0.873,0.874,1.998,1.355,3.165,1.355c2.53-0.003,4.111-1.65,4.13-4.302
		c0.012-1.625-0.486-4.361-3.957-4.439H163.081z M285.815,227.855c1.848,0.021,3.692,0.038,5.541,0.038
		c2.063,0,3.898-0.021,5.619-0.064c5.974-0.152,10.758-4.791,10.892-10.562c0.208-9.037,0.211-18.351,0.008-27.678
		c-0.134-6.169-4.421-10.464-10.669-10.687c-1.571-0.056-3.26-0.081-5.311-0.081c-1.47,0-2.938,0.013-4.406,0.026l-1.697,0.014
		c0,0.012,0,0.021,0,0.032c-0.018,5.704-0.014,11.409-0.01,17.112l0.02,7.234c0,2.466-0.004,4.931-0.008,7.396
		C285.785,216.286,285.776,222.115,285.815,227.855z M34.611,178.812c-2.226,0-4.19,0.035-6.004,0.104
		c-6.27,0.246-10.383,4.493-10.479,10.817c-0.13,8.647-0.13,17.74-0.001,27.02c0.088,6.376,4.646,10.934,11.084,11.078
		c1.79,0.041,3.581,0.058,5.372,0.058c1.88,0,3.76-0.018,5.639-0.034c0.024-5.522,0.02-11.046,0.015-16.568l-0.003-32.421
		C38.36,178.836,36.485,178.812,34.611,178.812z M96.179,80.663c3.597,0.043,8.016,2.378,8.631,8.815
		c0.616,6.396,3.653,12.194,9.558,18.246c6.62,6.78,14.703,12.546,26.209,18.69c16.391,8.755,35.25,15.945,57.656,21.983
		c18.879,5.086,38.513,8.706,58.354,10.757c8.071,0.834,16.396,1.225,24.448,1.604l0.146,0.009
		c0.026-9.106,0.022-18.38-0.015-27.576c-0.036-8.836-1.216-17.567-3.506-25.948c-10.031-36.709-32.31-63.277-66.216-78.966
		c-15.188-7.028-31.207-10.591-47.606-10.591c-6.606,0-13.391,0.58-20.166,1.723c-28.312,4.779-52.054,18.159-70.566,39.769
		C60.189,74.256,51.494,91.85,47.263,111.469c-1.906,8.844-2.72,18.938-2.42,30.008l0.002,2.023
		c1.951-3.742,4.515-7.192,7.677-10.332c2.435-2.417,4.952-4.791,7.386-7.086c3.821-3.604,7.773-7.332,11.344-11.177
		c7.088-7.629,14.417-15.517,15.963-26.245c0.68-4.709,4.319-7.998,8.85-7.998L96.179,80.663z"/>
</g>
</svg>
